<svg height="31.353" viewBox="0 0 196.82 31.353" width="196.82" xmlns="http://www.w3.org/2000/svg" xmlns:xlink="http://www.w3.org/1999/xlink"><linearGradient id="a" gradientUnits="objectBoundingBox" x2="1" y1=".324" y2=".336"><stop offset="0" stop-color="#ff3158"/><stop offset="1" stop-color="#ff1249"/></linearGradient><linearGradient id="b" gradientUnits="objectBoundingBox" x2="1" y1=".29" y2=".303"><stop offset="0" stop-color="#ff4e70"/><stop offset="1" stop-color="#ff3158"/></linearGradient><g transform="translate(278.14 3063.742)"><path d="m3.6 1.622h-1.2a.071.071 0 0 1 -.071-.071v-1.198a.353.353 0 1 0 -.705 0v1.2a.071.071 0 0 1 -.071.071h-1.2a.353.353 0 0 0 0 .705h1.2a.071.071 0 0 1 .071.071v1.2a.353.353 0 1 0 .705 0v-1.2a.071.071 0 0 1 .071-.073h1.2a.353.353 0 0 0 0-.705zm0 0" fill="#222" transform="matrix(.875 .485 -.485 .875 -111.961 -3060.853)"/><path d="m2.9 0h-2.514a.391.391 0 0 0 0 .782h2.514a.391.391 0 0 0 0-.782z" fill="#222" transform="matrix(.899 -.438 .438 .899 -115.874 -3062.302)"/><g fill="none" stroke="#222" stroke-width=".8"><circle cx="-117.662" cy="-3057.609" r="1.408" stroke="none"/><circle cx="-117.662" cy="-3057.609" fill="none" r="1.008"/></g><path d="m16.5-10.17a4.479 4.479 0 0 1 3.18 4.62 5.184 5.184 0 0 1 -1.6 4.2q-1.61 1.35-5.03 1.35h-9.27a1.906 1.906 0 0 1 -1.41-.51 1.906 1.906 0 0 1 -.51-1.41v-16.26a1.908 1.908 0 0 1 .509-1.41 1.9 1.9 0 0 1 1.408-.51h8.685a7.768 7.768 0 0 1 5 1.335 5.08 5.08 0 0 1 1.618 4.155 4.437 4.437 0 0 1 -2.58 4.38zm-4.17-1.53q3.18 0 3.18-2.55 0-2.58-3.18-2.58h-6.9v5.13zm.51 8.43q3.18 0 3.18-2.64 0-2.58-3.18-2.58h-7.41v5.22z" fill="#222" transform="translate(-101 -3033)"/><path d="m18.39-20.28a1.677 1.677 0 0 1 1.305.51 1.97 1.97 0 0 1 .465 1.38v16.38a2.249 2.249 0 0 1 -.555 1.59 1.962 1.962 0 0 1 -1.515.6 2.558 2.558 0 0 1 -2.07-1.05l-10.59-13.53h-.06v12.69a1.97 1.97 0 0 1 -.465 1.38 1.677 1.677 0 0 1 -1.305.51 1.639 1.639 0 0 1 -1.275-.51 1.97 1.97 0 0 1 -.465-1.38v-16.38a2.249 2.249 0 0 1 .555-1.59 1.962 1.962 0 0 1 1.515-.6 2.5 2.5 0 0 1 2.04 1.02l10.62 13.62h.06v-12.75a1.97 1.97 0 0 1 .465-1.38 1.639 1.639 0 0 1 1.275-.51zm5.07 13.11a8.263 8.263 0 0 1 .554-3.075 6.757 6.757 0 0 1 1.572-2.385 7.217 7.217 0 0 1 2.44-1.545 8.537 8.537 0 0 1 3.129-.555 8.537 8.537 0 0 1 3.129.555 7.055 7.055 0 0 1 2.425 1.545 7.039 7.039 0 0 1 1.572 2.385 8.07 8.07 0 0 1 .569 3.075 7.957 7.957 0 0 1 -.569 3.06 7.073 7.073 0 0 1 -1.572 2.37 7.055 7.055 0 0 1 -2.425 1.54 8.537 8.537 0 0 1 -3.129.56 8.537 8.537 0 0 1 -3.129-.56 7.217 7.217 0 0 1 -2.44-1.545 6.786 6.786 0 0 1 -1.572-2.37 8.147 8.147 0 0 1 -.554-3.055zm3.33 0a4.485 4.485 0 0 0 1.2 3.255 4.2 4.2 0 0 0 3.165 1.245 4.186 4.186 0 0 0 3.176-1.245 4.518 4.518 0 0 0 1.189-3.255 4.559 4.559 0 0 0 -1.189-3.285 4.186 4.186 0 0 0 -3.176-1.245 4.2 4.2 0 0 0 -3.161 1.245 4.525 4.525 0 0 0 -1.204 3.285zm23.13-7.47a1.662 1.662 0 0 1 1.2.431 1.588 1.588 0 0 1 .45 1.2 1.588 1.588 0 0 1 -.45 1.2 1.662 1.662 0 0 1 -1.2.431 4.536 4.536 0 0 0 -3.36 1.2 5.282 5.282 0 0 0 -1.2 3.85v4.722a1.834 1.834 0 0 1 -.439 1.309 1.6 1.6 0 0 1 -1.226.477 1.6 1.6 0 0 1 -1.226-.465 1.827 1.827 0 0 1 -.439-1.305v-11.19a1.838 1.838 0 0 1 .439-1.29 1.578 1.578 0 0 1 1.226-.48 1.586 1.586 0 0 1 1.226.475 1.809 1.809 0 0 1 .439 1.275v.535h.06a4.8 4.8 0 0 1 4.5-2.375zm14.22 11.61a1.923 1.923 0 0 1 -.21.87 4.136 4.136 0 0 1 -1.875 1.89 6.544 6.544 0 0 1 -2.985.63 5.39 5.39 0 0 1 -4.082-1.53 5.9 5.9 0 0 1 -1.468-4.26v-12.12a1.827 1.827 0 0 1 .439-1.305 1.6 1.6 0 0 1 1.226-.465 1.6 1.6 0 0 1 1.226.465 1.827 1.827 0 0 1 .439 1.305v3.18h4.98a1.715 1.715 0 0 1 1.215.4 1.462 1.462 0 0 1 .435 1.125 1.424 1.424 0 0 1 -.435 1.1 1.715 1.715 0 0 1 -1.215.405h-4.98v6a2.836 2.836 0 0 0 .63 1.98 2.238 2.238 0 0 0 1.74.69 2.455 2.455 0 0 0 1.26-.315 2.457 2.457 0 0 0 .87-.855 1.645 1.645 0 0 1 .525-.525 1.368 1.368 0 0 1 .735-.2 1.579 1.579 0 0 1 1.1.39 1.452 1.452 0 0 1 .43 1.145zm10.5-11.7a5.814 5.814 0 0 1 4.545 1.71 7.193 7.193 0 0 1 1.545 4.98v6.45a1.827 1.827 0 0 1 -.439 1.305 1.6 1.6 0 0 1 -1.226.465 1.6 1.6 0 0 1 -1.226-.465 1.827 1.827 0 0 1 -.439-1.305v-6.09a4.37 4.37 0 0 0 -.911-3 3.439 3.439 0 0 0 -2.7-1.02 3.643 3.643 0 0 0 -2.9 1.2 4.807 4.807 0 0 0 -1.049 3.27v5.64a1.827 1.827 0 0 1 -.44 1.305 1.6 1.6 0 0 1 -1.225.465 1.6 1.6 0 0 1 -1.226-.465 1.827 1.827 0 0 1 -.439-1.305v-17.82a1.827 1.827 0 0 1 .439-1.305 1.6 1.6 0 0 1 1.226-.465 1.6 1.6 0 0 1 1.226.465 1.827 1.827 0 0 1 .439 1.305v6.72h.06a5.344 5.344 0 0 1 1.965-1.5 6.637 6.637 0 0 1 2.775-.54zm16.62 2.94a4.485 4.485 0 0 0 -2.745.855 3.824 3.824 0 0 0 -1.485 2.3h8.37a3.9 3.9 0 0 0 -1.44-2.3 4.293 4.293 0 0 0 -2.7-.855zm6.06 9.66a6.476 6.476 0 0 1 -2.505 1.845 8.613 8.613 0 0 1 -3.4.645 8.984 8.984 0 0 1 -3.23-.56 7.335 7.335 0 0 1 -2.485-1.54 6.689 6.689 0 0 1 -1.59-2.37 8.132 8.132 0 0 1 -.555-3.06 8.248 8.248 0 0 1 .555-3.075 6.758 6.758 0 0 1 1.57-2.385 7.231 7.231 0 0 1 2.445-1.545 8.569 8.569 0 0 1 3.135-.555 7.959 7.959 0 0 1 2.91.525 7.455 7.455 0 0 1 2.34 1.425 6.454 6.454 0 0 1 1.545 2.115 6.172 6.172 0 0 1 .555 2.595v.15a1.857 1.857 0 0 1 -.54 1.395 1.937 1.937 0 0 1 -1.41.525h-9.63a4 4 0 0 0 1.47 2.5 4.58 4.58 0 0 0 2.91.915 4.743 4.743 0 0 0 2.055-.415 4.231 4.231 0 0 0 1.425-1.05 1.561 1.561 0 0 1 1.23-.6 1.54 1.54 0 0 1 1.14.42 1.5 1.5 0 0 1 .42 1.11 1.549 1.549 0 0 1 -.36.99zm12.27-12.6a5.814 5.814 0 0 1 4.545 1.71 7.193 7.193 0 0 1 1.545 4.98v6.45a1.827 1.827 0 0 1 -.439 1.305 1.6 1.6 0 0 1 -1.226.465 1.6 1.6 0 0 1 -1.226-.465 1.827 1.827 0 0 1 -.439-1.305v-6.09a4.37 4.37 0 0 0 -.911-3 3.439 3.439 0 0 0 -2.7-1.02 3.643 3.643 0 0 0 -2.9 1.2 4.807 4.807 0 0 0 -1.046 3.27v5.64a1.827 1.827 0 0 1 -.439 1.305 1.6 1.6 0 0 1 -1.226.465 1.6 1.6 0 0 1 -1.228-.465 1.827 1.827 0 0 1 -.439-1.305v-11.19a1.827 1.827 0 0 1 .439-1.305 1.6 1.6 0 0 1 1.226-.465 1.6 1.6 0 0 1 1.226.465 1.827 1.827 0 0 1 .439 1.305v.09h.06a5.344 5.344 0 0 1 1.965-1.5 6.637 6.637 0 0 1 2.774-.54zm22.6-6.45a1.627 1.627 0 0 1 1.241.48 1.8 1.8 0 0 1 .454 1.29v17.82a1.79 1.79 0 0 1 -.454 1.305 1.655 1.655 0 0 1 -1.241.465 1.565 1.565 0 0 1 -1.19-.465 1.826 1.826 0 0 1 -.439-1.305v-.15h-.06a5.461 5.461 0 0 1 -2.1 1.56 7.251 7.251 0 0 1 -2.88.54 7.391 7.391 0 0 1 -2.88-.54 6.4 6.4 0 0 1 -2.22-1.53 6.733 6.733 0 0 1 -1.421-2.37 9.105 9.105 0 0 1 -.5-3.09 9.235 9.235 0 0 1 .5-3.105 6.71 6.71 0 0 1 1.425-2.385 6.4 6.4 0 0 1 2.22-1.53 7.391 7.391 0 0 1 2.88-.54 7.251 7.251 0 0 1 2.88.54 5.461 5.461 0 0 1 2.1 1.56h.083l-.023-6.78a1.838 1.838 0 0 1 .435-1.29 1.54 1.54 0 0 1 1.195-.48zm-6.03 18.51a4.678 4.678 0 0 0 1.781-.33 4.078 4.078 0 0 0 1.4-.93 4.119 4.119 0 0 0 .9-1.425 5.033 5.033 0 0 0 .316-1.815 5.155 5.155 0 0 0 -.313-1.83 4.092 4.092 0 0 0 -.9-1.44 4.078 4.078 0 0 0 -1.4-.93 4.678 4.678 0 0 0 -1.776-.33 4.161 4.161 0 0 0 -3.131 1.245 4.525 4.525 0 0 0 -1.2 3.285 4.485 4.485 0 0 0 1.2 3.255 4.161 4.161 0 0 0 3.128 1.245zm26.295-.6a1.89 1.89 0 0 1 1.29.42 1.509 1.509 0 0 1 .48 1.2 1.556 1.556 0 0 1 -.48 1.215 1.848 1.848 0 0 1 -1.285.435h-12.81a1.906 1.906 0 0 1 -1.41-.51 1.906 1.906 0 0 1 -.51-1.41v-16.44a2.015 2.015 0 0 1 .465-1.41 1.715 1.715 0 0 1 1.335-.51 1.677 1.677 0 0 1 1.3.51 2.015 2.015 0 0 1 .465 1.41v15.09z" fill="#222" transform="translate(-280 -3033)"/><path d="m2027.966 2407.858a5.4 5.4 0 0 1 5.563.62c3.925 1.087 4.705.56 4.705.56s1.923 10.548-5.248 11.13-5.02-12.31-5.02-12.31z" fill="url(#a)" transform="translate(-2146.378 -5453.15)"/><path d="m2037.5 2407.811a3.954 3.954 0 0 0 -5.536-.409 4.021 4.021 0 0 1 -4.7.409s-4.756 7.383-4.332 10.574c.9 2.325 6.238.685 9.273.927 3.305.264 8.276 1.75 9.547-.927-.252-3.137-4.197-10.507-4.252-10.574z" fill="url(#b)" transform="translate(-2145.912 -5452.35)"/><path d="m22.312 19.713-6.56-14.458a2 2 0 0 1 -.135-.661v-1.332a.6.6 0 0 1 .318-.475 1.486 1.486 0 0 0 -.724-2.787h-5.5a1.488 1.488 0 0 0 -.846 2.714.691.691 0 0 1 .3.505v1.539a1.838 1.838 0 0 1 -.145.656l-6.651 14.306a1.645 1.645 0 0 0 .024 1.6 1.646 1.646 0 0 0 1.439.7h16.96a1.564 1.564 0 0 0 1.52-2.3zm-.948.656s.364.554-.217.581c0 .053-13.11.052-17.587 0-.554 0-.29-.534-.29-.534 0-.016 3.7-8.143 3.78-8.315l3-6.459a1.825 1.825 0 0 0 .124-.656v-2.644c0-.217-.105-.393-.234-.393h-.232a.459.459 0 0 1 0-.917h5.5a.459.459 0 0 1 0 .917h-.308a.358.358 0 0 0 -.307.393v2.464a2 2 0 0 0 .124.661l2.828 6.63c.078.174 3.866 8.288 3.819 8.272z" fill="#030104" transform="translate(-125.973 -3054.447)"/><path d="m120.962 6.575-3.875-6.342a.486.486 0 0 0 -.829 0l-3.875 6.342a.486.486 0 0 0 .742.612 5.311 5.311 0 0 1 7.1 0 .485.485 0 0 0 .742-.611z" fill="#222" transform="translate(-230.678 -3043.792)"/></g></svg>