<svg height="456.287" viewBox="0 0 1600.136 456.287" width="1600.136" xmlns="http://www.w3.org/2000/svg"><path d="m.136 0h1600v456h-1600z" fill="#f8f8f8"/><g fill="#f2f2f2"><path d="m283.427 815.4a143.6 143.6 0 0 0 24.9-22.014c70.712-79.335 129.35-74.161 187.989-31.044s213.859 20.7 181.09-155.22 115.556-110.38 155.224-170.743c18.971-28.974 21.731-55.19 16.9-77.265h-566.461s.15 456.086.358 456.286z" transform="translate(-283.069 -359.113)"/><path d="m909.347 361.977c-42.468-5.167-138.882-9.689-198.949 46.828-78.432 74.279-143.473 69.435-208.514 29.066s-237.209-19.378-200.863 145.329-128.169 103.343-172.167 159.859c-21.043 27.128-24.1 51.672-18.747 72.341h799.24z" transform="translate(690.293 -359.114)"/></g></svg>