<svg height="384.939" viewBox="0 0 768.381 384.939" width="768.381" xmlns="http://www.w3.org/2000/svg"><path d="m1592.29 1053.886-10.568-14.192a6.739 6.739 0 0 0 -5.318-2.676h-17v-9.518h17a16.186 16.186 0 0 1 12.939 6.5l10.568 14.192z" fill="#9ac4f8" transform="translate(-999.845 -849.922)"/><path d="m1477.813 1113.565a60.172 60.172 0 0 1 -60.157 60.157c-1.152 0-2.269-.034-3.387-.1l-1.524-.1c-.745-.068-1.524-.135-2.269-.237a2.636 2.636 0 0 1 -.745-.1c-1.152-.1-2.235-.3-3.353-.508-1.016-.169-2-.406-3.015-.644a51.109 51.109 0 0 1 -6.808-2.1 15.856 15.856 0 0 1 -1.626-.61 11.583 11.583 0 0 1 -1.355-.576c-.644-.271-1.355-.576-2-.915a55.435 55.435 0 0 1 -9.078-5.419c-.474-.339-.982-.677-1.423-1.05-.542-.44-1.152-.915-1.66-1.355a60.2 60.2 0 0 1 -4.844-4.437c-.643-.644-1.287-1.355-1.9-2.066-.474-.508-.982-1.084-1.423-1.66-.508-.576-1.016-1.253-1.49-1.863-.61-.779-1.219-1.592-1.762-2.405a59.689 59.689 0 0 1 -10.5-33.974v-.034c.034-25 13.888-46.337 35.566-55.415 3.9-1.626 9.823-5.521 9.823-9.789v-108.496l2.134-4.369h28.08v112.794a7.532 7.532 0 0 0 2.168 4.844 21.5 21.5 0 0 0 7.384 5.115 11.083 11.083 0 0 1 1.287.61 34.61 34.61 0 0 1 4.607 2.337c.609.339 1.253.711 1.863 1.118.813.508 1.626 1.05 2.4 1.592 14.328 10.026 23.473 26.352 24.794 45.151.146 1.49.213 2.98.213 4.504z" fill="#9ac4f8" transform="translate(-866.332 -789.085)"/><path d="m1521.714 935.434v88.033c-1.457-49.148-19.883-69.742-28.216-76.618-.745-.61-1.457-1.152-2-1.524v-5.555l2.134-4.37h28.08z" fill="#82baff" transform="translate(-954.944 -789.019)"/><path d="m1498.078 1349.832c-1.355-18.8-10.466-35.159-24.828-45.185a56.763 56.763 0 0 0 -8.874-5.047 62.3 62.3 0 0 1 10.128 30.011c.1 1.49.169 2.981.169 4.471a60.047 60.047 0 0 1 -86.272 54.127 60.149 60.149 0 0 0 109.813-33.94c.033-1.456-.035-2.946-.136-4.437z" fill="#70c8d6" transform="translate(-886.766 -1029.856)"/><path d="m1514.619 928.931a8.4 8.4 0 0 1 -2.371 5.792 8.036 8.036 0 0 1 -5.148 2.371 3.9 3.9 0 0 1 -.644.034h-28.856a5.013 5.013 0 0 1 -.711-.034 8.221 8.221 0 0 1 -7.486-8.2 8.4 8.4 0 0 1 2.371-5.792 8.277 8.277 0 0 1 5.826-2.4h28.859a8.2 8.2 0 0 1 8.16 8.229z" fill="#b6c2cc" transform="translate(-940.33 -779.298)"/><path d="m1506.356 921.377a7.553 7.553 0 0 1 7.52 7.553 7.688 7.688 0 0 1 -2.2 5.318 7.552 7.552 0 0 1 -4.708 2.2h-.068a2.572 2.572 0 0 1 -.542.034h-28.858a3.9 3.9 0 0 1 -.644-.034h-.068a7.5 7.5 0 0 1 -6.876-7.52 7.806 7.806 0 0 1 2.168-5.318 7.715 7.715 0 0 1 5.352-2.236zm0-.677h-28.856a8.153 8.153 0 0 0 -8.2 8.2 8.245 8.245 0 0 0 7.486 8.2 5.01 5.01 0 0 0 .711.034h28.859a3.894 3.894 0 0 0 .643-.034 8.208 8.208 0 0 0 5.149-2.371 8.313 8.313 0 0 0 2.371-5.792 8.161 8.161 0 0 0 -8.163-8.231z" fill="#a4e6f7" transform="translate(-940.263 -779.298)"/><circle cx="536.523" cy="300.229" fill="#70c8d6" r="4.302"/><circle cx="548.886" cy="315.742" fill="#70c8d6" r="7.689"/><path d="m1486.148 1460.124v.237a52.024 52.024 0 0 1 -88.914 36.209 51.182 51.182 0 0 1 -14.734-30.925v-.034a51.188 51.188 0 0 1 26.488-7.418c15.818.17 30.417 12.871 53.755 9.721a73.616 73.616 0 0 0 23.405-7.79z" fill="#b58fef" transform="translate(-882.864 -1134.728)"/><path d="m1517.691 1463.9v.237a51.753 51.753 0 0 1 -51.96 51.553c-14.5 0-26.115-4.471-35.532-13.955 12.092 2.066 48.369.474 64.831-30.18 6.945-.914 13.889-3.184 22.661-7.655z" fill="#8c6acc" transform="translate(-914.407 -1138.505)"/><circle cx="7.757" cy="7.757" fill="#8c6acc" r="7.757" transform="matrix(.8 -.6 .6 .8 557.084 342.954)"/><path d="m1672.267 1129.33h-8.875a.66.66 0 0 1 -.644-.61l-1.151-12.6a17.526 17.526 0 0 0 -9.857-12.77 36.117 36.117 0 0 1 -6.165-3.861c-5.318-4.132-10.094-14.971-12.329-20.764a4.526 4.526 0 0 1 2.066-5.691l.2-.1 10.365-5.656a4.627 4.627 0 0 1 5.487.779c4.606 4.573 14.023 15.954 17.952 35.972 5.322 26.859 2.951 25.301 2.951 25.301z" fill="#82baff" transform="translate(-1048.457 -875.845)"/><path d="m1677.417 1129.2h-1.456c1.084-5.386-3.658-26.082-10.873-39.766-10.5-19.883-17.478-17.783-24.388-16.7l10.365-5.656a4.627 4.627 0 0 1 5.487.779c4.607 4.573 14.023 15.954 17.952 35.972 5.284 26.927 2.913 25.371 2.913 25.371z" fill="#9ac4f8" transform="translate(-1053.607 -875.713)"/><circle cx="515.793" cy="335.963" fill="#8c6acc" r="4.302"/><path d="m1329.652 1151.944v29.672a2.754 2.754 0 0 1 -2.744 2.744h-20.221v28.08a2.744 2.744 0 1 1 -5.487 0v-30.823a2.754 2.754 0 0 1 2.744-2.744h20.221v-26.894a2.7 2.7 0 0 1 1.423-2.405 2.5 2.5 0 0 1 1.321-.373 2.754 2.754 0 0 1 2.743 2.743z" fill="#9ac4f8" transform="translate(-602.616 -930.504)"/><path d="m1335.685 1151.878v29.672a2.754 2.754 0 0 1 -2.744 2.744h-20.222v25.844h-2.337s-.135-26.895 0-28.012c.169-1.118 20.56.644 22.728-2.134 2.2-2.744.576-6.639.711-17.241.1-7.689-.406-11.415-2.2-13.278a2.5 2.5 0 0 1 1.321-.373 2.806 2.806 0 0 1 2.743 2.778z" fill="#82baff" transform="translate(-608.648 -930.438)"/><path d="m1187.642 1182.554v50.165a2.744 2.744 0 0 1 -5.487 0v-43.019l-26.928 29.672a2.747 2.747 0 0 1 -3.523.474 2.561 2.561 0 0 1 -.372-.271 2.772 2.772 0 0 1 -.2-3.9l31.738-34.956a1.782 1.782 0 0 1 .373-.339 2.747 2.747 0 0 1 4.4 2.168z" fill="#9ac4f8" transform="translate(-502.912 -950.75)"/><path d="m1184.551 1209.678v-10.4l-26.928 29.672a2.748 2.748 0 0 1 -3.523.474l31.23-35.125z" fill="#82baff" transform="translate(-505.341 -960.328)"/><path d="m1251.637 1182.554v50h-2.472s.677-41.188 0-46.913a11.142 11.142 0 0 0 -1.965-5.25 2.777 2.777 0 0 1 4.437 2.168z" fill="#82baff" transform="translate(-566.907 -950.75)"/><path d="m1265.276 1330.089v5.758a7.7 7.7 0 0 1 -7.689 7.689h-31.264a7.712 7.712 0 0 1 -7.723-7.689v-5.758a7.712 7.712 0 0 1 7.723-7.689h31.264a7.662 7.662 0 0 1 7.689 7.689z" fill="#263238" transform="translate(-547.994 -1045.037)"/><path d="m1265.276 1330.023v5.758a7.7 7.7 0 0 1 -7.689 7.689h-31.264a7.712 7.712 0 0 1 -7.723-7.689v-2.574c20.933 1.728 32.517-6.232 37.395-10.907h1.592a7.712 7.712 0 0 1 7.689 7.723z" fill="#414d53" transform="translate(-547.994 -1044.971)"/><path d="m1221.309 1494.763v9.179a3.737 3.737 0 0 1 -3.726 3.726h-131.491a3.73 3.73 0 0 1 -3.692-3.726v-9.179a3.853 3.853 0 0 1 .847-2.405l42.645-50.537a1.446 1.446 0 0 1 .406-.372 3.611 3.611 0 0 1 2.439-.949h46.235a3.729 3.729 0 0 1 2.4.915 1.658 1.658 0 0 1 .44.406l42.611 50.537a3.7 3.7 0 0 1 .886 2.405z" fill="#9ac4f8" transform="translate(-457.928 -1123.135)"/><path d="m668.37 307.102h51.045v19.917h-51.045z" fill="#9ac4f8"/><path d="m1313.491 1474.66v9.179a3.737 3.737 0 0 1 -3.726 3.726h-45.118c17.817-14.531 9.891-46.337 2.439-57.515-.372-.576-.779-1.084-1.118-1.558-2.574-3.15-6.639-5.86-11.347-8.129-13.82-6.74-32.822-9.823-32.822-9.823l.135-.44h47.624v11.178a1.654 1.654 0 0 1 .441.406l42.611 50.537a3.853 3.853 0 0 1 .881 2.439z" fill="#82baff" transform="translate(-550.11 -1103.032)"/><path d="m1252.355 1381.967h-52.908a5.038 5.038 0 0 1 -5.047-5.047v-8.773a5.038 5.038 0 0 1 5.047-5.047h52.908a5.038 5.038 0 0 1 5.047 5.047v8.739a5.024 5.024 0 0 1 -5.047 5.081z" fill="#c7d3de" transform="translate(-531.991 -1071.952)"/><path d="m1229.467 1550.705c0 1.457-1.423 2.608-3.218 2.608h-115.131c-1.728 0-3.218-1.152-3.218-2.608l.542-6.368a2.239 2.239 0 0 1 .745-1.693l20.188-23.473c7.316-1.423 15.412-2.066 22.491-.678 18.494 3.726 20.493 11.11 33.6 11.347a48.6 48.6 0 0 0 14.43-2.066 49.226 49.226 0 0 0 11.516-5.182l16.733 20.052a2.239 2.239 0 0 1 .745 1.693z" fill="#e8505b" transform="translate(-474.79 -1174.2)"/><path d="m1398.159 1560.214c0 1.457-1.423 2.608-3.218 2.608h-31.941c5.013-7.215 6.334-16.53 5.623-25.539a49.231 49.231 0 0 0 11.516-5.182l16.733 20.052a2.239 2.239 0 0 1 .745 1.693z" fill="#f14062" transform="translate(-643.483 -1183.708)"/><circle cx="659.089" cy="358.079" fill="#d44c56" r="5.69"/><circle cx="717.282" cy="373.187" fill="#d44c56" r="3.794"/><circle cx="703.36" cy="341.448" fill="#82baff" r="7.316"/><circle cx="686.153" cy="333.522" fill="#82baff" r="3.895"/><circle cx="698.889" cy="325.562" fill="#82baff" r="2.845"/><path d="m1367.281 344.509c0-.206-171.95-.309-384.191-.309s-384.191.1-384.191.309 171.951.309 384.191.309 384.191-.103 384.191-.309z" fill="#263238" transform="translate(-598.9 39.565)"/><path d="m709.407 904.344h-116.117a6.452 6.452 0 0 1 -5.507-9.87l48.3-75.245a8.27 8.27 0 0 0 1.33-4.486l.031-23.143h27.815l.031 23.143a8.27 8.27 0 0 0 1.33 4.486l48.3 75.245a6.476 6.476 0 0 1 -5.513 9.87z" fill="#9ac4f8" transform="translate(-456.605 -669.667)"/><path d="m756.3 789.54s18.409-1.794 18.626 10.612 5.474-16.552 5.474-16.552l-24.1 1.423z" fill="#9ac4f8" transform="translate(-573.669 -664.142)"/><path d="m867.887 904.344h-44.058c8.787-7.487 8.416-16.367 9.622-25.525 1.887-14.294-.8-34.621-16.769-59.621-.773-3.31-.247-21.534-.093-27.6h7.085l.031 23.143a8.27 8.27 0 0 0 1.331 4.486l48.3 75.245a6.431 6.431 0 0 1 -5.449 9.872z" fill="#82baff" transform="translate(-615.085 -669.667)"/><path d="m721.867 1043.073h-100.739c-4.517 0-6-3.28-3.589-6.776l22.122-34.652a34.31 34.31 0 0 1 9.437-.773c13.892 1.33 17.512 7.859 32.022 7.054a43.993 43.993 0 0 0 12.159-2.32c.866-.278 1.733-.588 2.537-.928a34.4 34.4 0 0 0 7.364-4.177l22.307 35.8c2.351 3.523.897 6.772-3.62 6.772z" fill="#263238" transform="translate(-477.047 -813.934)"/><path d="m887.549 1043.073h-31.249c3.744-4.734 5.971-25.4 4.548-38.334.866-.278 6.343-2.382 7.982-4.239l22.307 35.8c2.383 3.524.929 6.773-3.588 6.773z" fill="#263238" transform="translate(-642.73 -813.934)"/><path d="m764.1 772.206h-27.041a6.563 6.563 0 0 1 -6.559-6.559v-.588a6.563 6.563 0 0 1 6.559-6.559h27.041a6.562 6.562 0 0 1 6.559 6.559v.588a6.563 6.563 0 0 1 -6.559 6.559z" fill="#b6c2cc" transform="translate(-555.851 -646.808)"/><circle cx="164.314" cy="214.751" fill="#414d53" r="4.455"/><circle cx="206.204" cy="175.644" fill="#82baff" r="4.455"/><circle cx="214.716" cy="218.898" fill="#414d53" r="4.858"/><circle cx="197.977" cy="204.17" fill="#414d53" r="6.095"/><circle cx="182.721" cy="165.465" fill="#82baff" r="6.095"/><path d="m298.064 857.727h129.018a1.763 1.763 0 0 0 1.764-1.764 1.783 1.783 0 0 0 -1.764-1.763h-129.018a1.763 1.763 0 0 0 -1.764 1.763 1.783 1.783 0 0 0 1.764 1.764z" fill="#b6c2cc" transform="translate(-255.991 -712.899)"/><path d="m214.5 1572.985h101.08a29.525 29.525 0 0 0 -29.516-29.485h-42.048a29.485 29.485 0 0 0 -29.516 29.485z" fill="#c7d3de" transform="translate(-199.5 -1188.933)"/><path d="m366.4 622.6v297.333a3.528 3.528 0 0 0 7.054 0v-297.333a3.481 3.481 0 0 0 -3.527-3.4 3.726 3.726 0 0 0 -2.506.99.03.03 0 0 0 -.031.031 3.344 3.344 0 0 0 -.99 2.379z" fill="#c7d3de" transform="translate(-304.403 -550.607)"/><path d="m55.5 66.86h20.049v8.539h-20.049z" fill="#c7d3de"/><path d="m261.5 902.08c2.166-.526 3.527-.773 3.527-.773v-279.168c-2.135-2.1-2.723-4.053-2.537-5.786a.03.03 0 0 1 .031-.031 5.693 5.693 0 0 1 .99-2.723h-8.511v8.539h6.5v279.138h-17.45a29.538 29.538 0 0 0 -29.55 29.516h29.64c-22.06-17.109 6.838-26.144 17.36-28.712z" fill="#b6c2cc" transform="translate(-199.5 -546.74)"/><path d="m718.5 847.736v.433a5.071 5.071 0 0 0 5.105 5.105h37.406a5 5 0 0 0 3.249-1.207h.031a5.223 5.223 0 0 0 1.795-3.9v-.433a5.117 5.117 0 0 0 -5.1-5.136h-37.381a5.1 5.1 0 0 0 -5.105 5.138z" fill="#c7d3de" transform="translate(-547.564 -704.888)"/><path d="m345.4 830.853v9.347a5.361 5.361 0 0 0 5.353 5.383h9.347a5.361 5.361 0 0 0 5.352-5.383v-9.344a5.354 5.354 0 0 0 -5.352-5.356h-9.344a5.354 5.354 0 0 0 -5.356 5.353z" fill="#c7d3de" transform="translate(-289.9 -693.079)"/><path d="m274.4 829.808v11.541a4.279 4.279 0 0 0 4.239 4.3 4.181 4.181 0 0 0 1.64-.309s0 .031.031 0a4.344 4.344 0 0 0 2.63-3.96v-11.54a4.259 4.259 0 0 0 -4.3-4.239 4.353 4.353 0 0 0 -1.794.4c-2.046 1.799-2.446 2.755-2.446 3.807z" fill="#c7d3de" transform="translate(-240.867 -693.148)"/><path d="m345.4 830.853v9.347a5.361 5.361 0 0 0 5.353 5.383h4.672c-6.807-11.7 0-20.08 0-20.08h-4.672a5.354 5.354 0 0 0 -5.353 5.35z" fill="#b6c2cc" transform="translate(-289.9 -693.079)"/><path d="m274.4 830.637v11.54a4.279 4.279 0 0 0 4.239 4.3 4.181 4.181 0 0 0 1.64-.309c-3.837-3.125-3.806-13.552-3.434-19.368-2.045 1.825-2.445 2.785-2.445 3.837z" fill="#b6c2cc" transform="translate(-240.867 -693.977)"/><path d="m718.5 847.736v.433a5.071 5.071 0 0 0 5.105 5.105h37.406a5 5 0 0 0 3.249-1.207c-6.776 1.3-21.565 2.6-27.381-9.468h-13.274a5.1 5.1 0 0 0 -5.105 5.137z" fill="#b6c2cc" transform="translate(-547.564 -704.888)"/><path d="m811.293 1475.337a.1.1 0 0 1 -.093-.093v-20.451a.1.1 0 0 1 .093-.093.082.082 0 0 1 .093.093v20.451c-.031.062-.062.093-.093.093z" fill="#dd3b2f" transform="translate(-611.583 -1127.607)"/><path d="m763.665 1510.968v10.365h-77.565v-10.365a5.585 5.585 0 0 1 5.569-5.569h66.489a5.494 5.494 0 0 1 5.507 5.569z" fill="#9ac4f8" transform="translate(-525.189 -1162.62)"/><path d="m763.665 1510.968v10.365h-77.565v-3.156c17.574 1.423 55.351 2.413 70.449-12.778h1.609a5.494 5.494 0 0 1 5.507 5.569z" fill="#82baff" transform="translate(-525.189 -1162.62)"/><path d="m750.285 1560.388v19.987h-99.285v-19.987a6.206 6.206 0 0 1 6.188-6.188h86.912a6.206 6.206 0 0 1 6.185 6.188z" fill="#9ac4f8" transform="translate(-500.949 -1196.322)"/><path d="m773.973 1560.374v19.987h-21.132c3.96-4.177 5.971-8.354 4.053-12.159-7.456-14.758-71.594-14.016-71.594-14.016h82.485a6.206 6.206 0 0 1 6.188 6.188z" fill="#82baff" transform="translate(-524.636 -1196.308)"/><path d="m763.261 1353.1a23.36 23.36 0 0 0 5.476-.742c7.24-1.826 14.077-6.9 15.408-14.6 1.64-9.406-5.476-16.243-11.881-21.874-5.26-4.641-12.128-10.024-11.324-17.883a32.182 32.182 0 0 1 -3.62 12.5c-3.713 6.621-11.664 9.189-15.191 15.779-3.249 6.095-1.423 14.7 3.187 19.615a23.886 23.886 0 0 0 17.945 7.205z" fill="#e8505b" transform="translate(-562.747 -1019.389)"/><path d="m787.125 1403.243a12.411 12.411 0 0 0 2.785-.433 10.848 10.848 0 0 0 7.766-8.756c.835-5.631-2.754-9.746-6-13.118-2.661-2.784-6.126-6-5.724-10.736a21.634 21.634 0 0 1 -1.825 7.487c-1.856 3.96-5.878 5.507-7.673 9.468-1.64 3.651-.712 8.818 1.609 11.757a11.182 11.182 0 0 0 9.062 4.331z" fill="#e8505b" transform="translate(-587.013 -1069.25)"/><path d="m756.263 1579.317v10.705h-89.663v-10.705a4.47 4.47 0 0 1 4.455-4.517h80.752a4.51 4.51 0 0 1 4.456 4.517z" fill="#263238" transform="translate(-511.722 -1210.548)"/><path d="m902.533 1579.386v10.705h-12.871c1.423-2.63 1.795-5.167.588-7.58-1.64-3.249-6.033-5.724-11.85-7.611h19.678a4.463 4.463 0 0 1 4.455 4.486z" fill="#414d53" transform="translate(-657.992 -1210.618)"/><path d="m768.411 515.218a17.859 17.859 0 0 1 -17.852 17.852 17.192 17.192 0 0 1 -6.188-1.176h-.031c-.557-.217-1.145-.464-1.7-.743a12.359 12.359 0 1 1 -18.533-16.212 13.452 13.452 0 0 1 -3.806-9.375 13.713 13.713 0 0 1 12.407-13.644 13.446 13.446 0 0 1 -.34-2.97 12.821 12.821 0 0 1 3.96-9.282 10.253 10.253 0 0 1 -6.064-9.282 10.1 10.1 0 0 1 10.116-10.086 10.506 10.506 0 0 1 2.413.278 10.068 10.068 0 0 1 5.693 15.872 12.9 12.9 0 0 1 6.126 21.472 17.7 17.7 0 0 1 13.799 17.296z" fill="#263238" transform="translate(-548.808 -440.87)"/><path d="m6.714 0a6.714 6.714 0 1 1 -6.714 6.714 6.714 6.714 0 0 1 6.714-6.714z" fill="#263238" transform="translate(202.711)"/><path d="m815.994 515.7a17.859 17.859 0 0 1 -17.852 17.852 17.192 17.192 0 0 1 -6.188-1.176c22.029-16.119 0-31.93 0-31.93a12.807 12.807 0 0 0 7.116-12.871c-.712-5.971-9.87-9.282-9.87-9.282 6.683-5.94 3.249-13.8 1.207-17.3a10.068 10.068 0 0 1 5.693 15.872 12.9 12.9 0 0 1 6.126 21.472 17.827 17.827 0 0 1 13.768 17.363z" fill="#414d53" transform="translate(-596.39 -441.354)"/><path d="m832.15 397.8a6.614 6.614 0 0 1 1.485 4.177 6.708 6.708 0 0 1 -6.714 6.714c-.34 0-.681-.062-1.021-.093a6.7 6.7 0 1 0 6.25-10.8z" fill="#414d53" transform="translate(-621.735 -397.707)"/><path d="m716.163 310.42-41.763-41.9 21.02-38.582c21.02-26.828 65.41-25.168 65.41-25.168a253.906 253.906 0 0 1 65.549 4.01c35.264 6.914 32.5 30.285 32.5 30.285l4.7 86.568 5.117 70.389-130.129 2.627-22.4-88.228" fill="#e8505b" transform="translate(-410.212 -13.783)"/><path d="m798.316 382-116.577 1.383c-28.073.277-46.741-28.764-34.71-54.071l49.922-92.512 45.359 30.7-30.977 64.3 94.451 1.66z" fill="#e8505b" transform="translate(-422.114 -1.287)"/><path d="m804.8 219.1 93.621 144.511-54.624 3.6s-32.636-51.443-31.806-50.337c1.245 1.932-7.191-97.774-7.191-97.774z" fill="#e8505b" transform="translate(-360.284 -8.064)"/><path d="m717.388 283.417a2.422 2.422 0 0 1 .138-.691c.138-.553.277-1.245.553-2.074.415-1.8 1.106-4.425 1.659-7.744a103.681 103.681 0 0 0 1.8-11.616 61.287 61.287 0 0 0 0-14.244 36.179 36.179 0 0 0 -4.84-13.276 61.492 61.492 0 0 0 -6.914-9.4 65.928 65.928 0 0 0 -5.67-5.532c-1.383-1.245-2.213-1.8-2.213-1.936a7.177 7.177 0 0 1 .691.415q.622.415 1.659 1.245a37.959 37.959 0 0 1 5.808 5.393 50.428 50.428 0 0 1 7.191 9.4 40.5 40.5 0 0 1 4.978 13.552 55.28 55.28 0 0 1 -.138 14.382c-.553 4.425-1.245 8.3-1.936 11.616s-1.383 5.946-1.936 7.744a8.845 8.845 0 0 1 -.691 2.074 1.678 1.678 0 0 1 -.139.692z" fill="#263238" transform="translate(-399.683 -8.906)"/><path d="m717.33 268.6s-.277.83-.83 2.074c-.553 1.383-1.383 3.181-2.489 5.532-2.074 4.7-5.117 11.2-8.574 18.254s-6.776 13.414-9.127 17.977c-1.245 2.213-2.213 4.149-2.9 5.393s-1.106 1.936-1.106 1.936.277-.691.968-2.074 1.659-3.181 2.766-5.393l8.989-17.978c3.457-7.053 6.5-13.414 8.712-18.116 1.106-2.213 1.936-4.01 2.628-5.532a15.949 15.949 0 0 1 .963-2.073z" fill="#263238" transform="translate(-403.358 10.889)"/><path d="m786.911 355.813v-.968c0-.691.138-1.521.277-2.766.276-2.489.691-5.946 1.106-10.372.968-8.989 2.489-21.573 4.149-36.37l.277.415h-34.434c-23.509 0-44.805-.138-60.294-.138-7.606 0-13.967-.138-18.254-.138 4.425 0 10.648 0 18.254-.138 15.488 0 36.785 0 60.294-.138h34.849v.415c-1.8 14.8-3.319 27.381-4.425 36.37-.553 4.425-.968 7.882-1.383 10.372-.138 1.106-.277 2.074-.415 2.766a5.994 5.994 0 0 1 -.138.691c.137-.139.137-.001.137-.001z" fill="#263238" transform="translate(-410.71 24.902)"/><path d="m698.322 310.687c-.138 0-.83-1.106-2.351-2.9a43.719 43.719 0 0 0 -6.223-6.361 51.676 51.676 0 0 0 -7.329-5.117c-1.936-1.106-3.319-1.659-3.319-1.8s1.383.277 3.457 1.383a35.1 35.1 0 0 1 7.606 4.978 37.787 37.787 0 0 1 6.223 6.638c1.383 1.934 2.074 3.179 1.936 3.179z" fill="#263238" transform="translate(-408.412 20.799)"/><path d="m814.629 345.69a4.341 4.341 0 0 1 -.138-1.245c-.138-.83-.276-1.936-.415-3.457-.277-3.042-.691-7.329-1.245-12.723-.968-10.648-2.074-25.583-3.042-41.9s-1.66-31.253-2.075-42.04c-.138-5.393-.276-9.68-.415-12.723v-4.7a8.535 8.535 0 0 0 .138 1.245c0 .83.138 2.074.138 3.457.138 3.042.415 7.468.553 12.723.553 10.787 1.245 25.583 2.213 41.9s1.936 31.253 2.766 41.9c.415 5.255.692 9.68.968 12.723.138 1.383.138 2.628.276 3.457a5.855 5.855 0 0 1 .278 1.383z" fill="#263238" transform="translate(-359.327 -5.077)"/><g fill="#e0e0e0"><path d="m741.473 266.414s0-.691.138-1.936c.138-1.383.415-3.042.691-5.255.553-4.564 1.383-10.786 2.351-18.116l.553.277c-2.766 1.936-5.808 4.01-8.989 6.223s-6.223 4.425-9.127 6.361l-.691.415.138-.83c1.106-7.191 2.074-13.414 2.766-17.839.415-2.074.691-3.872.83-5.117.277-1.245.277-1.8.415-1.8 0 0 0 .691-.138 1.936s-.415 3.042-.691 5.255c-.691 4.564-1.521 10.786-2.489 17.978l-.553-.277c2.766-1.936 5.946-4.149 9.127-6.361s6.223-4.287 8.989-6.223l.691-.415-.138.83c-1.106 7.191-1.936 13.414-2.627 17.978-.277 2.213-.553 3.872-.83 5.255-.139.97-.277 1.661-.416 1.661z" transform="translate(-390.302 -4.35)"/><path d="m784.924 265.437a9.962 9.962 0 0 1 -1.383-1.383c-.968-.968-2.074-2.213-3.6-3.872-3.181-3.319-7.468-8.021-12.308-13.414l.553-.138c-.277 3.457-.553 7.053-.968 10.925-.277 3.872-.691 7.606-.968 11.063v.83l-.553-.553c-4.84-5.393-8.989-10.1-12.031-13.552-1.383-1.659-2.628-2.9-3.457-4.01-.83-.968-1.245-1.383-1.106-1.521a9.975 9.975 0 0 1 1.383 1.383c.968.968 2.074 2.213 3.6 3.872 3.042 3.319 7.329 8.021 12.169 13.414l-.553.138c.276-3.457.553-7.191.968-11.063.276-3.872.691-7.468.968-10.925v-.83l.553.553c4.84 5.393 9.127 10.1 12.169 13.552 1.383 1.66 2.628 2.9 3.457 4.01.692.968 1.107 1.521 1.107 1.521z" transform="translate(-381.618 2.159)"/><path d="m797.92 258.7s-.276.553-.968 1.66-1.659 2.627-2.766 4.425c-2.489 3.872-5.946 9.127-9.818 15.35l-.277-.553c3.319-.553 7.053-1.245 10.786-1.8 3.872-.691 7.468-1.245 10.925-1.8l.83-.138-.415.691c-4.01 6.085-7.606 11.2-10.1 15.073-1.245 1.8-2.213 3.181-2.9 4.287-.692.968-1.106 1.521-1.106 1.521s.276-.553.968-1.659 1.66-2.628 2.766-4.425c2.489-3.872 5.946-9.127 9.818-15.212l.276.553c-3.457.553-7.052 1.245-10.925 1.936-3.734.691-7.468 1.245-10.786 1.8l-.83.138.415-.691c4.01-6.085 7.468-11.34 10.1-15.212 1.245-1.8 2.213-3.319 2.9-4.287.692-1.104 1.107-1.657 1.107-1.657z" transform="translate(-368.478 7.098)"/><path d="m772.72 278.1s-.276.553-.968 1.659-1.66 2.628-2.766 4.425c-2.489 3.872-5.946 9.127-9.818 15.35l-.277-.553c3.319-.553 7.053-1.245 10.786-1.8 3.872-.691 7.468-1.245 10.925-1.8l.83-.138-.415.691c-4.01 6.085-7.606 11.2-10.1 15.073-1.245 1.8-2.213 3.181-2.9 4.287-.691.968-1.106 1.521-1.106 1.521s.277-.553.968-1.659 1.659-2.628 2.766-4.425c2.489-3.872 5.946-9.127 9.818-15.212l.277.553c-3.457.553-7.053 1.245-10.925 1.936-3.734.691-7.468 1.245-10.786 1.8l-.83.138.415-.691c4.01-6.085 7.468-11.34 10.095-15.212 1.245-1.8 2.213-3.319 2.9-4.287a8.292 8.292 0 0 1 1.111-1.656z" transform="translate(-378.126 14.526)"/><path d="m827.22 258.4s-.277.553-.968 1.659-1.66 2.628-2.766 4.425c-2.489 3.872-5.946 9.127-9.818 15.35l-.276-.553c3.319-.553 7.053-1.245 10.786-1.8 3.872-.691 7.468-1.245 10.925-1.8l.83-.138-.415.691c-4.01 6.085-7.606 11.2-10.1 15.073-1.245 1.8-2.213 3.181-2.9 4.287-.691.968-1.106 1.521-1.106 1.521s.277-.553.968-1.66 1.659-2.627 2.766-4.425c2.489-3.872 5.946-9.127 9.818-15.212l.276.553c-3.457.553-7.053 1.245-10.925 1.936-3.734.691-7.468 1.245-10.786 1.8l-.83.138.415-.691c4.01-6.085 7.468-11.34 10.1-15.212 1.245-1.8 2.213-3.319 2.9-4.287.553-1.102.968-1.655 1.106-1.655z" transform="translate(-357.259 6.983)"/><path d="m699.72 242.4s-.277.553-.968 1.659-1.659 2.627-2.766 4.425c-2.489 3.872-5.946 9.127-9.818 15.35l-.277-.553c3.319-.553 7.053-1.245 10.786-1.8 3.872-.691 7.468-1.245 10.925-1.8l.83-.138-.415.691c-4.01 6.085-7.606 11.2-10.1 15.073-1.245 1.8-2.213 3.181-2.9 4.287-.691.968-1.106 1.521-1.106 1.521s.277-.553.968-1.659 1.659-2.627 2.766-4.425c2.489-3.872 5.946-9.127 9.818-15.212l.277.553c-3.457.553-7.053 1.245-10.925 1.936-3.734.691-7.468 1.245-10.786 1.8l-.83.138.415-.691c4.01-6.085 7.468-11.34 10.095-15.212 1.245-1.8 2.213-3.319 2.9-4.287.696-1.103 1.111-1.656 1.111-1.656z" transform="translate(-406.077 .857)"/><path d="m656.2 318s.415.415 1.245 1.383 1.936 2.351 3.319 4.01c2.9 3.6 6.914 8.436 11.478 14.105l-.553.138c.553-3.319.968-7.053 1.521-10.786.553-3.872 1.106-7.606 1.659-10.925l.138-.83.553.691c4.425 5.67 8.3 10.648 11.2 14.244 1.245 1.66 2.351 3.181 3.181 4.149.691.968 1.106 1.521 1.106 1.521s-.415-.415-1.245-1.383-1.936-2.351-3.319-4.01c-2.9-3.6-6.776-8.436-11.34-14.105l.553-.138c-.553 3.457-1.106 7.053-1.659 10.925-.553 3.734-1.106 7.468-1.66 10.786l-.138.83-.553-.553c-4.564-5.67-8.436-10.648-11.34-14.244-1.383-1.659-2.351-3.181-3.181-4.149-.688-1.102-.965-1.659-.965-1.659z" transform="translate(-417.18 28.693)"/><path d="m756.072 268.817s-.691.138-1.936.277c-1.383.138-3.042.277-5.255.415-4.563.277-10.925.83-18.116 1.383l.277-.553c2.489 2.351 5.117 4.84 8.021 7.468 2.766 2.627 5.531 5.255 8.021 7.606l.553.553h-.83c-7.191.415-13.552.691-18.116.968-2.213.138-3.872.138-5.255.277h-1.936s.692-.138 1.936-.277c1.383-.138 3.042-.277 5.255-.415 4.564-.277 10.787-.691 18.116-1.245l-.277.553c-2.489-2.351-5.255-4.978-8.021-7.606s-5.532-5.117-7.883-7.468l-.553-.553h.83c7.329-.415 13.552-.83 18.116-1.106 2.213-.138 3.872-.138 5.255-.277 1.106 0 1.798-.138 1.798 0z" transform="translate(-392.178 10.948)"/><path d="m724.3 320.081a6.715 6.715 0 0 1 1.245 1.383c.83.968 2.074 2.351 3.457 4.01 3.042 3.457 7.053 8.3 11.754 13.967l-.553.138c.415-3.319.83-7.053 1.383-10.786.553-3.872.968-7.606 1.383-11.063l.138-.83.553.553c4.564 5.67 8.574 10.51 11.478 14.105q2.074 2.489 3.319 4.149c.691.968 1.106 1.521 1.106 1.521s-.415-.415-1.245-1.383-1.936-2.351-3.457-4.01c-2.9-3.457-6.914-8.3-11.616-13.829l.553-.138c-.415 3.457-.968 7.191-1.383 11.063-.553 3.734-.968 7.468-1.383 10.786l-.138.83-.553-.553c-4.7-5.67-8.712-10.51-11.616-14.105q-2.074-2.489-3.319-4.149c-.691-1.106-1.106-1.659-1.106-1.659z" transform="translate(-391.106 29.382)"/><path d="m694.272 282.2s-.691.138-1.936.277c-1.383.138-3.042.277-5.255.415-4.564.277-10.925.83-18.116 1.383l.277-.553c2.489 2.351 5.117 4.84 8.021 7.468 2.766 2.628 5.532 5.255 8.021 7.606l.553.553h-.83c-7.191.415-13.552.691-18.116.968-2.213.138-3.872.138-5.255.277h-1.936s.691-.138 1.936-.277c1.383-.138 3.042-.277 5.255-.415 4.563-.277 10.786-.691 18.116-1.245l-.277.553c-2.489-2.351-5.255-4.978-8.021-7.606s-5.531-5.117-7.882-7.468l-.553-.553h.83c7.329-.415 13.552-.83 18.116-1.106 2.213-.138 3.872-.138 5.255-.277z" transform="translate(-415.84 16.096)"/><path d="m728.272 318s-.691.138-1.936.277c-1.383.138-3.042.277-5.255.415-4.563.277-10.925.83-18.116 1.383l.276-.553c2.489 2.351 5.117 4.84 8.021 7.468 2.766 2.628 5.532 5.255 8.021 7.606l.553.553h-.83c-7.191.415-13.552.691-18.116.968-2.212.138-3.872.138-5.255.277h-1.935s.691-.138 1.936-.277c1.383-.138 3.042-.277 5.255-.415 4.564-.277 10.787-.691 18.116-1.245l-.277.553c-2.489-2.351-5.255-4.978-8.021-7.606s-5.531-5.117-7.883-7.468l-.553-.553h.83c7.329-.415 13.552-.83 18.116-1.106 2.213-.138 3.872-.138 5.255-.277z" transform="translate(-402.822 29.803)"/><path d="m805.072 226.9s-.691.138-1.936.277c-1.383.138-3.042.277-5.255.415-4.563.277-10.925.83-18.116 1.383l.277-.553c2.489 2.351 5.117 4.84 8.021 7.468 2.766 2.627 5.532 5.255 8.021 7.606l.553.553h-.83c-7.191.415-13.552.691-18.116.968-2.213.138-3.872.138-5.255.277h-1.936s.691-.138 1.936-.277c1.383-.138 3.042-.277 5.255-.415 4.563-.277 10.786-.691 18.116-1.245l-.277.553c-2.489-2.351-5.255-4.978-8.021-7.606s-5.532-5.117-7.883-7.468l-.553-.553h.83c7.329-.415 13.552-.83 18.116-1.106 2.213-.138 3.872-.138 5.255-.277z" transform="translate(-373.417 -5.077)"/></g><path d="m759.042 320.431s23.232-6.638 30.977-8.712c3.042-.83 15.9 5.946 24.754 11.616 0 0 12.169 7.191 11.2 9.542-1.106 2.489-5.532 1.936-12.723-1.383 0 0 2.489 7.329-2.351 7.191 0 0 2.489 7.882-2.213 8.712-4.563.83-5.67-9.265-9.818-9.819-4.01-.553-12.446-1.106-12.446-1.106s-7.053 11.616-12.446 12.446-17.976-.691-17.976-.691z" fill="#ffbe9d" transform="translate(-378.969 27.372)"/><ellipse cx=".415" cy="7.468" fill="#eb996e" rx=".415" ry="7.468" transform="matrix(.533 -.846 .846 .533 419.519 349.802)"/><ellipse cx=".415" cy="8.297" fill="#eb996e" rx=".415" ry="8.297" transform="matrix(.419 -.908 .908 .419 418.348 354.279)"/><ellipse cx=".415" cy="5.255" fill="#eb996e" rx=".415" ry="5.255" transform="matrix(.13580203 -.99073599 .99073599 .13580203 420.837 365.217)"/><path d="m741.627 163.054a5.1 5.1 0 0 1 -1.521 5.117 4.841 4.841 0 0 1 -5.255.553c-3.181-1.659-3.6-5.946-2.9-9.4.553-3.457 1.8-7.191.276-10.372-1.106-2.489-3.6-4.01-5.393-5.946a15.518 15.518 0 0 1 -4.287-13 12.764 12.764 0 0 1 8.85-10.1c4.564-1.245 10.372.138 13.829-3.181 2.489-2.489 2.628-6.361 4.564-9.265 3.042-4.564 9.4-5.255 14.659-4.425 5.393.691 10.786 2.489 16.041 1.106 4.425-1.106 8.021-4.149 12.031-6.085a24.441 24.441 0 0 1 27.1 5.255c6.776 7.053 8.3 18.531 3.872 27.243a15.7 15.7 0 0 1 -7.329 7.329" fill="#263238" transform="translate(-391.838 -55.181)"/><path d="m763.411 269.541a26.765 26.765 0 0 0 26.69-26.966l-.415-25.445s21.3-2.074 22.818-23.232c1.383-21.158.415-69.974.415-69.974a73.656 73.656 0 0 0 -74.4 5.255l-3.319 2.213 1.659 111.875a26.412 26.412 0 0 0 26.552 26.274z" fill="#ffbe9d" transform="translate(-386.933 -47.443)"/><path d="m788.075 151.161c-3.734-.691-3.734-5.532 0-6.361h.553c3.734.691 3.734 5.532 0 6.361z" fill="#263238" transform="translate(-367.76 -36.513)"/><path d="m793.255 145.425c-.415.415-2.351-1.383-5.255-1.521-2.9-.277-5.117 1.245-5.393.83-.138-.138.277-.83 1.245-1.521a6.592 6.592 0 0 1 4.287-1.106 7.687 7.687 0 0 1 4.149 1.659c.829.834 1.106 1.521.967 1.659z" fill="#263238" transform="translate(-368.791 -37.553)"/><circle cx="3.042" cy="3.042" fill="#263238" r="3.042" transform="matrix(.56942301 -.82204467 .82204467 .56942301 384.689 112.023)"/><path d="m770.255 146.025c-.415.415-2.351-1.383-5.255-1.521-2.9-.277-5.117 1.245-5.393.83-.138-.138.277-.83 1.245-1.521a6.592 6.592 0 0 1 4.287-1.106 7.687 7.687 0 0 1 4.149 1.659c.829.834 1.106 1.521.967 1.659z" fill="#263238" transform="translate(-377.598 -37.323)"/><path d="m774.893 170.046c0-.277 1.8-.553 4.7-.691.83 0 1.383-.138 1.521-.553a5.352 5.352 0 0 0 -.415-2.213c-.691-1.936-1.245-4.01-1.936-6.085-2.766-8.574-4.563-15.765-4.149-15.9s3.042 6.776 5.67 15.35c.691 2.074 1.245 4.149 1.8 6.085a4.793 4.793 0 0 1 .276 3.181 1.837 1.837 0 0 1 -1.383 1.106 4.764 4.764 0 0 1 -1.245.138c-3.041-.004-4.839-.142-4.839-.418z" fill="#263238" transform="translate(-371.864 -36.59)"/><path d="m767.867 165a53.516 53.516 0 0 0 14.105 4.978s-3.734 5.255-9.68 2.627c-6.223-2.765-4.425-7.605-4.425-7.605z" fill="#fff" transform="translate(-374.518 -28.778)"/><path d="m782.143 191.5s-13.414.415-27.243-9.4c0 0 5.67 15.627 26.966 14.8z" fill="#eb996e" transform="translate(-379.39 -22.231)"/><path d="m814.438 130.769s-12.722 6.5-29.732-1.521c-11.063-5.255-24.062-7.744-26.828-5.393-2.766 2.213-3.181 13.691-13.967 17.148 0 0 1.106 21.711-7.468 21.02-8.712-.553-3.872-34.3-3.872-34.3l20.882-10.786 22.956-4.84 21.85 2.627 16.871 4.287z" fill="#263238" transform="translate(-388.452 -49.032)"/><path d="m740.259 143.358c-.415-.138-14.382-5.117-14.658 9.4s14.244 11.893 14.382 11.478c0-.411.276-20.878.276-20.878z" fill="#ffbe9d" transform="translate(-390.609 -37.422)"/><path d="m734.523 157.316a7.177 7.177 0 0 0 -.691.415 3.015 3.015 0 0 1 -1.936 0c-1.521-.553-2.766-3.042-2.766-5.67a7.276 7.276 0 0 1 .83-3.6 2.713 2.713 0 0 1 1.936-1.936 1.392 1.392 0 0 1 1.521.691 2.423 2.423 0 0 1 .138.691 1.211 1.211 0 0 0 .277-.83 1.757 1.757 0 0 0 -.553-.968 2.065 2.065 0 0 0 -1.383-.415 3.283 3.283 0 0 0 -2.627 2.213 9.03 9.03 0 0 0 -.968 4.01c0 2.9 1.521 5.67 3.6 6.361a3.091 3.091 0 0 0 2.351-.277c.271-.27.409-.685.271-.685z" fill="#eb996e" transform="translate(-389.575 -36.168)"/><path d="m730.8 110.4c-.138-.138 2.351-.83 4.978.138 2.766.968 4.149 3.042 3.872 3.181-.138.138-1.659-1.521-4.149-2.489a15.925 15.925 0 0 0 -4.701-.83z" fill="#263238" transform="translate(-388.619 -49.824)"/><path d="m737.235 104c.276 0-.138 3.042.415 6.638s2.213 6.223 2.074 6.361a10.13 10.13 0 0 1 -1.245-1.659 15.992 15.992 0 0 1 -1.521-4.564 15.356 15.356 0 0 1 .277-6.776z" fill="#263238" transform="translate(-386.34 -52.134)"/><path d="m780.2 140.036c-.138-.138.553-.691 1.659-1.106a14.554 14.554 0 0 1 4.84-.83 11.52 11.52 0 0 1 4.84.968c1.106.553 1.8.968 1.659 1.245-.138.415-2.9-.691-6.5-.691-3.451-.277-6.355.829-6.498.414z" fill="#263238" transform="translate(-369.707 -39.077)"/><path d="m756.8 137.836c-.138-.138.553-.691 1.66-1.106a14.553 14.553 0 0 1 4.84-.83 11.521 11.521 0 0 1 4.84.968c1.106.553 1.8.968 1.659 1.245-.138.415-2.9-.691-6.5-.691-3.452-.277-6.218.829-6.499.414z" fill="#263238" transform="translate(-378.667 -39.92)"/><path d="m778.529 141.315v.83a15.986 15.986 0 0 0 .138 2.351 35.068 35.068 0 0 0 .138 3.6 14.9 14.9 0 0 0 .691 4.7 12.333 12.333 0 0 0 3.042 4.84 13.459 13.459 0 0 0 5.67 3.181 10.293 10.293 0 0 0 3.6.277 8.068 8.068 0 0 0 3.6-.83 11.953 11.953 0 0 0 5.946-4.84 12.133 12.133 0 0 0 1.936-7.053v-7.191l.277.277c-7.191 0-13.414-.138-17.977-.138-2.213 0-3.872 0-5.255-.138h-1.383a.683.683 0 0 1 -.415.138s.553 0 1.8-.138c1.245 0 3.042 0 5.117-.138 4.563 0 10.786-.138 18.116-.138h.277v7.468a12.278 12.278 0 0 1 -2.074 7.468 13.5 13.5 0 0 1 -6.361 5.117 17.509 17.509 0 0 1 -3.872.83 8.659 8.659 0 0 1 -3.734-.415 12.6 12.6 0 0 1 -5.946-3.319 14.372 14.372 0 0 1 -3.181-5.117 12.414 12.414 0 0 1 -.553-4.84 31.282 31.282 0 0 1 .138-3.734 11.932 11.932 0 0 1 .138-2.351c.127-.559.127-.835.127-.697z" fill="#263238" transform="translate(-370.521 -38.005)"/><path d="m754.029 140.715v.83a16 16 0 0 0 .138 2.351 35.052 35.052 0 0 0 .138 3.6 14.9 14.9 0 0 0 .691 4.7 12.332 12.332 0 0 0 3.042 4.84 13.46 13.46 0 0 0 5.67 3.181 10.292 10.292 0 0 0 3.6.277 8.067 8.067 0 0 0 3.6-.83 11.953 11.953 0 0 0 5.946-4.84 12.131 12.131 0 0 0 1.936-7.053v-7.191l.277.277c-7.191 0-13.414-.138-17.977-.138-2.213 0-3.872 0-5.255-.138h-1.383c-.277.277-.415.138-.415.138s.553 0 1.8-.138c1.245 0 3.042 0 5.117-.138 4.564 0 10.786-.138 18.116-.138h.277v7.468a12.28 12.28 0 0 1 -2.074 7.468 13.5 13.5 0 0 1 -6.361 5.117 17.509 17.509 0 0 1 -3.872.83 8.659 8.659 0 0 1 -3.734-.415 12.6 12.6 0 0 1 -5.947-3.319 14.373 14.373 0 0 1 -3.181-5.117 12.415 12.415 0 0 1 -.553-4.84 31.31 31.31 0 0 1 .138-3.734 11.932 11.932 0 0 1 .138-2.351 2.418 2.418 0 0 0 .128-.697z" fill="#263238" transform="translate(-379.901 -38.235)"/><ellipse cx="403.583" cy="104.278" fill="#263238" rx="4.84" ry=".415"/><ellipse cx="13.276" cy=".415" fill="#263238" rx="13.276" ry=".415" transform="matrix(.99999539 -.00303687 .00303687 .99999539 347.58 104.04)"/><path d="m877.708 258.7-45.773 113.535h-82.835v5.117h246.568l50.332-118.652z" fill="#263238" transform="translate(-381.611 7.588)"/><ellipse cx="10.786" cy="8.159" fill="#c7d3de" rx="10.786" ry="8.159" transform="matrix(.28 -.96 .96 .28 547.601 339.208)"/></svg>